<svg width="107" height="42" xmlns="http://www.w3.org/2000/svg" xmlns:xlink="http://www.w3.org/1999/xlink"><defs><path d="M93.117 26.959l-1.243 1.464h-1.912l2.475-2.766-1.38-2.625h1.773l.68 1.421 1.19-1.42h1.944l-2.454 2.733 1.392 2.657h-1.764l-.7-1.464zm4.551 3.525h-1.774l1.753-2.885-1.094-4.567h1.689l.595 2.875 1.647-2.875h1.784l-4.6 7.452zm8.238-2.061h-4.43l.297-1.453 2.794-2.539h-2.188l.297-1.399H107l-.287 1.356-2.91 2.625h2.4l-.297 1.41zM0 22.837l5.062-.835c-.04.199-.04.318-.04.358 0 1.671 1.028 2.626 2.57 2.626 1.424 0 2.096-.756 2.096-1.631 0-.597-.197-1.234-1.344-1.711l-1.898-.796c-3.322-1.392-4.469-3.421-4.469-5.769 0-3.58 3.124-6.644 7.672-6.644 6.169 0 7.434 3.939 7.474 6.206l-5.141.597c0-1.034-.316-2.506-2.373-2.506-1.146 0-2.016.716-2.016 1.71 0 .677.435 1.194 1.067 1.433l2.452.995c3.322 1.352 4.469 3.5 4.469 5.928 0 3.222-2.729 6.604-7.79 6.604C1.225 29.402 0 24.946 0 23.076v-.239zm25.183-11.896c.988-1.233 2.965-2.307 5.18-2.307 5.101 0 7.711 3.58 7.711 8.315 0 7.241-4.627 12.334-10.281 12.334-3.006 0-4.983-1.313-5.774-2.546l-1.312 4.047h1.716L13.628 42l1.812-8.477h-1.812l5.465-21.19c.316-1.59.356-2.665.356-3.301H25.3c0 .716 0 1.551-.118 1.91zm3.163 2.945c-2.847 0-4.785 2.904-4.785 5.928 0 2.705 1.622 4.058 3.638 4.058 2.136 0 4.785-1.95 4.785-6.008 0-2.626-1.582-3.978-3.638-3.978zM54.25 9.032h5.813L56.7 24.827a15.179 15.179 0 0 0-.356 3.223c0 .119 0 .397.04.755h-5.457c-.04-.238-.04-.557-.04-.716 0-.557.04-1.114.119-1.63-.751 1.193-2.254 2.665-4.943 2.665-4.745 0-7.711-3.86-7.711-8.873 0-6.883 4.39-11.697 9.925-11.697 3.757 0 5.18 1.83 5.576 2.586l.396-2.108zm-5.418 5.013c-2.966 0-4.548 3.063-4.548 5.928 0 2.546 1.464 3.939 3.44 3.939 2.176 0 4.47-1.99 4.47-6.088 0-2.466-1.385-3.78-3.362-3.78zm24.415 1.074c-.79-.239-1.305-.358-2.373-.358-2.016 0-4.073 1.154-4.903 5.013l-1.938 9.031h-6.01l3.48-16.471c.316-1.592.355-2.666.355-3.302h5.853c0 .08 0 1.273-.158 2.148 1.265-1.75 3.045-2.308 4.903-2.308.91 0 1.7.2 2.057.358l-1.266 5.889zm11.817 13.686l-3.243-7.32-2.57 2.268-1.068 5.052h-6.01L78.221 0h6.05l-3.243 15.238 6.88-6.206h8.187l-9.807 8.554 5.457 11.22h-6.683z" id="a"/></defs><g fill="none" fill-rule="evenodd"><mask id="b" fill="#fff"><use xlink:href="#a"/></mask><use fill="#373D42" fill-rule="nonzero" xlink:href="#a"/><g mask="url(#b)" fill="#FFF"><path d="M-2.045-.677h111v43h-111z"/></g></g></svg>